# xmcd CD database file
#
# Track frame offsets:
#	150
#	17986
#	35151
#	61817
#	78794
#	101715
#	115556
#	133470
#	152576
#	180793
#	195880
#	213630
#	229228
#
# Disc length: 3285 seconds
#
# Revision: 0
# Processed by: cddbd v1.5.2PL0 Copyright (c) Steve Scherf et al.
# Submitted via: CDex 1.70beta2
#
DISCID=a50cd30d
DTITLE=Jewel - Goodbye Alice In Wonderland
DYEAR=2006
DGENRE=Country
TTITLE0=Again and Again
TTITLE1=Long Slow Slide
TTITLE2=Goodbye Alice in Wonderland
TTITLE3=Good Day
TTITLE4=Satellite
TTITLE5=Only One Too
TTITLE6=Words Get in The Way
TTITLE7=Drive to You
TTITLE8=Last Dance Rodeo
TTITLE9=Fragile Heart
TTITLE10=Stephenville, TX
TTITLE11=Where You Are
TTITLE12=1000 Miles Away
EXTD=YEAR: 2006
EXTT0=
EXTT1=
EXTT2=
EXTT3=
EXTT4=
EXTT5=
EXTT6=
EXTT7=
EXTT8=
EXTT9=
EXTT10=
EXTT11=
EXTT12=
PLAYORDER=
